# File exported by Houdini 16.5.405 (www.sidefx.com)
# 21 points
# 80 vertices
# 21 primitives
# Bounds: [-0.5, -0.400000006, -0.5] to [0.5, 0.600000024, 0.5]
g 
v 0 0.600000024 0
v 0.5 -0.400000006 0
v 0.47552827 -0.400000006 -0.154508501
v 0.404508501 -0.400000006 -0.293892622
v 0.293892622 -0.400000006 -0.404508501
v 0.154508486 -0.400000006 -0.47552827
v -2.18556941e-08 -0.400000006 -0.5
v -0.154508516 -0.400000006 -0.47552824
v -0.293892592 -0.400000006 -0.404508501
v -0.404508531 -0.400000006 -0.293892592
v -0.4755283 -0.400000006 -0.154508397
v -0.5 -0.400000006 4.37113883e-08
v -0.47552827 -0.400000006 0.154508486
v -0.404508471 -0.400000006 0.293892682
v -0.293892533 -0.400000006 0.404508561
v -0.154508546 -0.400000006 0.47552824
v 5.96244032e-09 -0.400000006 0.5
v 0.154508561 -0.400000006 0.47552824
v 0.293892741 -0.400000006 0.404508412
v 0.404508621 -0.400000006 0.293892473
v 0.47552827 -0.400000006 0.154508471
vn -0 -1 -0
vn -0 -1 -0
vn -0 -1 -0
vn -0 -1 -0
vn -0 -1 -0
vn 0 -1 -0
vn -0 -1 -0
vn -0 -1 -0
vn -0 -1 -0
vn -0 -1 -0
vn -0 -1 0
vn -0 -1 -0
vn -0 -1 -0
vn -0 -1 -0
vn -0 -1 -0
vn -0 -1 -0
vn -0 -1 -0
vn -0 -1 -0
vn -0 -1 -0
vn -0 -1 -0
vn 0.716086328 0.465341151 -0.520267248
vn 0.89442718 0.44721359 1.5042124e-08
vn 0.850650787 0.44721356 -0.276393175
vn 0.716086328 0.465341151 -0.520267248
vn 0.850650787 0.44721356 -0.276393175
vn 0.723606765 0.44721356 -0.525731087
vn 0.716086328 0.465341151 -0.520267248
vn 0.723606765 0.44721356 -0.525731087
vn 0.525731146 0.44721356 -0.723606765
vn 0.716086328 0.465341151 -0.520267248
vn 0.525731146 0.44721356 -0.723606765
vn 0.276393175 0.44721356 -0.850650787
vn -0.273520648 0.465341091 -0.841809928
vn 0.276393175 0.44721356 -0.850650787
vn -8.52387032e-08 0.44721359 -0.89442718
vn -0.273520648 0.465341091 -0.841809928
vn -8.52387032e-08 0.44721359 -0.89442718
vn -0.276393294 0.44721359 -0.850650787
vn -0.273520648 0.465341091 -0.841809928
vn -0.276393294 0.44721359 -0.850650787
vn -0.525731146 0.44721356 -0.723606825
vn -0.273520648 0.465341091 -0.841809928
vn -0.525731146 0.44721356 -0.723606825
vn -0.723606825 0.44721356 -0.525731027
vn -0.885131419 0.465341151 6.98938365e-08
vn -0.723606825 0.44721356 -0.525731027
vn -0.850650787 0.44721359 -0.276393056
vn -0.885131419 0.465341151 6.98938365e-08
vn -0.850650787 0.44721359 -0.276393056
vn -0.89442718 0.44721359 8.52387032e-08
vn -0.885131419 0.465341151 6.98938365e-08
vn -0.89442718 0.44721359 8.52387032e-08
vn -0.850650787 0.44721359 0.276393205
vn -0.885131419 0.465341151 6.98938365e-08
vn -0.850650787 0.44721359 0.276393205
vn -0.723606765 0.44721359 0.525731206
vn -0.273520529 0.465341151 0.841810107
vn -0.723606765 0.44721359 0.525731206
vn -0.525731027 0.44721359 0.723606825
vn -0.273520529 0.465341151 0.841810107
vn -0.525731027 0.44721359 0.723606825
vn -0.276393205 0.44721359 0.850650787
vn -0.273520529 0.465341151 0.841810107
vn -0.276393205 0.44721359 0.850650787
vn 0 0.44721359 0.89442718
vn -0.273520529 0.465341151 0.841810107
vn 0 0.44721359 0.89442718
vn 0.276393294 0.44721356 0.850650787
vn 0.716086507 0.465341121 0.520267069
vn 0.276393294 0.44721356 0.850650787
vn 0.525731266 0.44721356 0.723606706
vn 0.716086507 0.465341121 0.520267069
vn 0.525731266 0.44721356 0.723606706
vn 0.723606825 0.44721356 0.525730908
vn 0.716086507 0.465341121 0.520267069
vn 0.723606825 0.44721356 0.525730908
vn 0.850650847 0.44721356 0.276393056
vn 0.716086507 0.465341121 0.520267069
vn 0.850650847 0.44721356 0.276393056
vn 0.89442718 0.44721359 1.5042124e-08
g Cone
f 2//1 21//2 20//3 19//4 18//5 17//6 16//7 15//8 14//9 13//10 12//11 11//12 10//13 9//14 8//15 7//16 6//17 5//18 4//19 3//20
f 1//21 2//22 3//23
f 1//24 3//25 4//26
f 1//27 4//28 5//29
f 1//30 5//31 6//32
f 1//33 6//34 7//35
f 1//36 7//37 8//38
f 1//39 8//40 9//41
f 1//42 9//43 10//44
f 1//45 10//46 11//47
f 1//48 11//49 12//50
f 1//51 12//52 13//53
f 1//54 13//55 14//56
f 1//57 14//58 15//59
f 1//60 15//61 16//62
f 1//63 16//64 17//65
f 1//66 17//67 18//68
f 1//69 18//70 19//71
f 1//72 19//73 20//74
f 1//75 20//76 21//77
f 1//78 21//79 2//80
