# File exported by Houdini 16.5.405 (www.sidefx.com)
# 32 points
# 96 vertices
# 18 primitives
# Bounds: [-0.5, -0.0700000003, -0.5] to [0.5, 0.0700000003, 0.5]
g 
v 0.5 0.0700000003 0
v 0.461939752 0.0700000003 -0.191341728
v 0.353553385 0.0700000003 -0.353553385
v 0.191341713 0.0700000003 -0.461939752
v -2.18556941e-08 0.0700000003 -0.5
v -0.191341758 0.0700000003 -0.461939752
v -0.353553385 0.0700000003 -0.353553385
v -0.461939812 0.0700000003 -0.191341639
v -0.5 0.0700000003 4.37113883e-08
v -0.461939752 0.0700000003 0.191341713
v -0.353553325 0.0700000003 0.353553444
v -0.191341564 0.0700000003 0.461939842
v 5.96244032e-09 0.0700000003 0.5
v 0.191341802 0.0700000003 0.461939722
v 0.353553504 0.0700000003 0.353553265
v 0.461939782 0.0700000003 0.191341713
v 0.5 -0.0700000003 0
v 0.461939752 -0.0700000003 -0.191341728
v 0.353553385 -0.0700000003 -0.353553385
v 0.191341713 -0.0700000003 -0.461939752
v -2.18556941e-08 -0.0700000003 -0.5
v -0.191341758 -0.0700000003 -0.461939752
v -0.353553385 -0.0700000003 -0.353553385
v -0.461939812 -0.0700000003 -0.191341639
v -0.5 -0.0700000003 4.37113883e-08
v -0.461939752 -0.0700000003 0.191341713
v -0.353553325 -0.0700000003 0.353553444
v -0.191341564 -0.0700000003 0.461939842
v 5.96244032e-09 -0.0700000003 0.5
v 0.191341802 -0.0700000003 0.461939722
v 0.353553504 -0.0700000003 0.353553265
v 0.461939782 -0.0700000003 0.191341713
vn -0 1 -0
vn -0 1 -0
vn -0 1 -0
vn -0 1 -0
vn -0 1 -0
vn -0 1 -0
vn -0 1 -0
vn -0 1 -0
vn -0 1 -0
vn -0 1 0
vn -0 1 -0
vn -0 1 -0
vn -0 1 -0
vn 0 1 -0
vn -0 1 -0
vn -0 1 -0
vn -0 -1 -0
vn -0 -1 -0
vn -0 -1 -0
vn -0 -1 -0
vn 0 -1 -0
vn -0 -1 -0
vn -0 -1 -0
vn -0 -1 -0
vn -0 -1 0
vn -0 -1 -0
vn -0 -1 -0
vn -0 -1 -0
vn -0 -1 -0
vn -0 -1 -0
vn -0 -1 -0
vn -0 -1 -0
vn 1 0 -6.77055638e-08
vn 1 0 -6.77055638e-08
vn 0.923879504 -0 -0.382683516
vn 0.923879504 -0 -0.382683516
vn 0.923879504 -0 -0.382683516
vn 0.923879504 -0 -0.382683516
vn 0.707106769 -0 -0.707106829
vn 0.707106769 -0 -0.707106829
vn 0.707106769 -0 -0.707106829
vn 0.707106769 -0 -0.707106829
vn 0.382683486 -0 -0.923879504
vn 0.382683486 -0 -0.923879504
vn 0.382683486 -0 -0.923879504
vn 0.382683486 -0 -0.923879504
vn 0 0 -1
vn 0 0 -1
vn 0 0 -1
vn 0 0 -1
vn -0.382683516 0 -0.923879504
vn -0.382683516 0 -0.923879504
vn -0.382683516 0 -0.923879504
vn -0.382683516 0 -0.923879504
vn -0.707106829 0 -0.707106769
vn -0.707106829 0 -0.707106769
vn -0.707106829 0 -0.707106769
vn -0.707106829 0 -0.707106769
vn -0.923879623 0 -0.382683396
vn -0.923879623 0 -0.382683396
vn -0.923879623 0 -0.382683396
vn -0.923879623 0 -0.382683396
vn -1 -0 1.45083376e-07
vn -1 -0 1.45083376e-07
vn -1 -0 1.45083376e-07
vn -1 -0 1.45083376e-07
vn -0.923879445 -0 0.382683516
vn -0.923879445 -0 0.382683516
vn -0.923879445 -0 0.382683516
vn -0.923879445 -0 0.382683516
vn -0.70710665 -0 0.707106888
vn -0.70710665 -0 0.707106888
vn -0.70710665 -0 0.707106888
vn -0.70710665 -0 0.707106888
vn -0.382683247 -0 0.923879623
vn -0.382683247 -0 0.923879623
vn -0.382683247 -0 0.923879623
vn -0.382683247 -0 0.923879623
vn 1.64427789e-07 -0 1
vn 1.64427789e-07 -0 1
vn 1.64427789e-07 -0 1
vn 1.64427789e-07 -0 1
vn 0.382683635 0 0.923879445
vn 0.382683635 0 0.923879445
vn 0.382683635 0 0.923879445
vn 0.382683635 0 0.923879445
vn 0.707106948 0 0.70710665
vn 0.707106948 0 0.70710665
vn 0.707106948 0 0.70710665
vn 0.707106948 0 0.70710665
vn 0.923879623 0 0.382683367
vn 0.923879623 0 0.382683367
vn 0.923879623 0 0.382683367
vn 0.923879623 0 0.382683367
vn 1 0 -6.77055638e-08
vn 1 0 -6.77055638e-08
g Disc
f 16//1 1//2 2//3 3//4 4//5 5//6 6//7 7//8 8//9 9//10 10//11 11//12 12//13 13//14 14//15 15//16
f 17//17 32//18 31//19 30//20 29//21 28//22 27//23 26//24 25//25 24//26 23//27 22//28 21//29 20//30 19//31 18//32
f 1//33 17//34 18//35 2//36
f 2//37 18//38 19//39 3//40
f 3//41 19//42 20//43 4//44
f 4//45 20//46 21//47 5//48
f 5//49 21//50 22//51 6//52
f 6//53 22//54 23//55 7//56
f 7//57 23//58 24//59 8//60
f 8//61 24//62 25//63 9//64
f 9//65 25//66 26//67 10//68
f 10//69 26//70 27//71 11//72
f 11//73 27//74 28//75 12//76
f 12//77 28//78 29//79 13//80
f 13//81 29//82 30//83 14//84
f 14//85 30//86 31//87 15//88
f 15//89 31//90 32//91 16//92
f 16//93 32//94 17//95 1//96
