# File exported by Houdini 16.5.405 (www.sidefx.com)
# 80 points
# 320 vertices
# 80 primitives
# Bounds: [-0.401869774, -0.5, -0.401869774] to [0.401869774, 0.5, 0.401869774]
g 
v 0.25 0.5 0
v 0.237764135 0.5 -0.0772542506
v 0.202254251 0.5 -0.146946311
v 0.146946311 0.5 -0.202254251
v 0.0772542432 0.5 -0.237764135
v -1.09278471e-08 0.5 -0.25
v -0.0772542581 0.5 -0.23776412
v -0.146946296 0.5 -0.202254251
v -0.202254266 0.5 -0.146946296
v -0.23776415 0.5 -0.0772541985
v -0.25 0.5 2.18556941e-08
v -0.237764135 0.5 0.0772542432
v -0.202254236 0.5 0.146946341
v -0.146946266 0.5 0.20225428
v -0.077254273 0.5 0.23776412
v 2.98122016e-09 0.5 0.25
v 0.0772542804 0.5 0.23776412
v 0.146946371 0.5 0.202254206
v 0.20225431 0.5 0.146946236
v 0.237764135 0.5 0.0772542357
v 0.25 -0.5 0
v 0.237764135 -0.5 -0.0772542506
v 0.202254251 -0.5 -0.146946311
v 0.146946311 -0.5 -0.202254251
v 0.0772542432 -0.5 -0.237764135
v -1.09278471e-08 -0.5 -0.25
v -0.0772542581 -0.5 -0.23776412
v -0.146946296 -0.5 -0.202254251
v -0.202254266 -0.5 -0.146946296
v -0.23776415 -0.5 -0.0772541985
v -0.25 -0.5 2.18556941e-08
v -0.237764135 -0.5 0.0772542432
v -0.202254236 -0.5 0.146946341
v -0.146946266 -0.5 0.20225428
v -0.077254273 -0.5 0.23776412
v 2.98122016e-09 -0.5 0.25
v 0.0772542804 -0.5 0.23776412
v 0.146946371 -0.5 0.202254206
v 0.20225431 -0.5 0.146946236
v 0.237764135 -0.5 0.0772542357
v 0.401869774 0.5 2.29124475e-09
v 0.382200867 0.5 -0.124184594
v 0.382200867 -0.5 -0.124184594
v 0.401869774 -0.5 2.29124475e-09
v 0.325119466 0.5 -0.236213118
v 0.325119466 -0.5 -0.236213118
v 0.236213118 0.5 -0.325119466
v 0.236213118 -0.5 -0.325119466
v 0.124184579 0.5 -0.382200867
v 0.124184579 -0.5 -0.382200867
v -2.58209383e-08 0.5 -0.401869774
v -2.58209383e-08 -0.5 -0.401869774
v -0.124184608 0.5 -0.382200837
v -0.124184608 -0.5 -0.382200837
v -0.236213088 0.5 -0.325119466
v -0.236213088 -0.5 -0.325119466
v -0.325119495 0.5 -0.236213103
v -0.325119495 -0.5 -0.236213103
v -0.382200897 0.5 -0.124184512
v -0.382200897 -0.5 -0.124184512
v -0.401869774 0.5 3.67487871e-08
v -0.401869774 -0.5 3.67487871e-08
v -0.382200867 0.5 0.124184579
v -0.382200867 -0.5 0.124184579
v -0.325119436 0.5 0.236213177
v -0.325119436 -0.5 0.236213177
v -0.236213058 0.5 0.325119525
v -0.236213058 -0.5 0.325119525
v -0.124184608 0.5 0.382200837
v -0.124184608 -0.5 0.382200837
v 2.98122016e-09 0.5 0.401869774
v 2.98122016e-09 -0.5 0.401869774
v 0.124184638 0.5 0.382200837
v 0.124184638 -0.5 0.382200837
v 0.236213207 0.5 0.325119406
v 0.236213207 -0.5 0.325119406
v 0.325119555 0.5 0.236213014
v 0.325119555 -0.5 0.236213014
v 0.382200867 0.5 0.124184549
v 0.382200867 -0.5 0.124184549
vn -1 0 -9.60462287e-09
vn -0.95105654 -0 0.309016973
vn -0.95105654 -0 0.309016973
vn -1 0 -9.60462287e-09
vn -0.95105654 -0 0.309016973
vn -0.809017003 -0 0.587785304
vn -0.809017003 -0 0.587785304
vn -0.95105654 -0 0.309016973
vn -0.809017003 -0 0.587785304
vn -0.587785304 -0 0.809017003
vn -0.587785304 -0 0.809017003
vn -0.809017003 -0 0.587785304
vn -0.587785304 -0 0.809017003
vn -0.309016943 -0 0.95105654
vn -0.309016943 -0 0.95105654
vn -0.587785304 -0 0.809017003
vn -0.309016943 -0 0.95105654
vn 9.60462287e-08 0 1
vn 9.60462287e-08 0 1
vn -0.309016943 -0 0.95105654
vn 9.60462287e-08 0 1
vn 0.309017032 0 0.951056421
vn 0.309017032 0 0.951056421
vn 9.60462287e-08 0 1
vn 0.309017032 0 0.951056421
vn 0.587785184 0 0.809017062
vn 0.587785184 0 0.809017062
vn 0.309017032 0 0.951056421
vn 0.587785184 0 0.809017062
vn 0.809017003 0 0.587785304
vn 0.809017003 0 0.587785304
vn 0.587785184 0 0.809017062
vn 0.809017003 0 0.587785304
vn 0.9510566 0 0.309016854
vn 0.9510566 0 0.309016854
vn 0.809017003 0 0.587785304
vn 0.9510566 0 0.309016854
vn 1 -0 -1.00848538e-07
vn 1 -0 -1.00848538e-07
vn 0.9510566 0 0.309016854
vn 1 -0 -1.00848538e-07
vn 0.95105654 -0 -0.309017003
vn 0.95105654 -0 -0.309017003
vn 1 -0 -1.00848538e-07
vn 0.95105654 -0 -0.309017003
vn 0.809016883 -0 -0.587785363
vn 0.809016883 -0 -0.587785363
vn 0.95105654 -0 -0.309017003
vn 0.809016883 -0 -0.587785363
vn 0.587785125 -0 -0.809017062
vn 0.587785125 -0 -0.809017062
vn 0.809016883 -0 -0.587785363
vn 0.587785125 -0 -0.809017062
vn 0.309017032 -0 -0.95105654
vn 0.309017032 -0 -0.95105654
vn 0.587785125 -0 -0.809017062
vn 0.309017032 -0 -0.95105654
vn 0 -0 -1
vn 0 -0 -1
vn 0.309017032 -0 -0.95105654
vn 0 -0 -1
vn -0.309017122 0 -0.951056421
vn -0.309017122 0 -0.951056421
vn 0 -0 -1
vn -0.309017122 0 -0.951056421
vn -0.587785423 0 -0.809016824
vn -0.587785423 0 -0.809016824
vn -0.309017122 0 -0.951056421
vn -0.587785423 0 -0.809016824
vn -0.809017181 0 -0.587785065
vn -0.809017181 0 -0.587785065
vn -0.587785423 0 -0.809016824
vn -0.809017181 0 -0.587785065
vn -0.9510566 0 -0.309016824
vn -0.9510566 0 -0.309016824
vn -0.809017181 0 -0.587785065
vn -0.9510566 0 -0.309016824
vn -1 0 -9.60462287e-09
vn -1 0 -9.60462287e-09
vn -0.9510566 0 -0.309016824
vn 1 0 3.36161818e-08
vn 1 0 3.36161818e-08
vn 0.951056421 -0 -0.309017003
vn 0.951056421 -0 -0.309017003
vn 0.951056421 -0 -0.309017003
vn 0.951056421 -0 -0.309017003
vn 0.809016883 -0 -0.587785244
vn 0.809016883 -0 -0.587785244
vn 0.809016883 -0 -0.587785244
vn 0.809016883 -0 -0.587785244
vn 0.587785244 -0 -0.809016883
vn 0.587785244 -0 -0.809016883
vn 0.587785244 -0 -0.809016883
vn 0.587785244 -0 -0.809016883
vn 0.309017003 -0 -0.951056421
vn 0.309017003 -0 -0.951056421
vn 0.309017003 -0 -0.951056421
vn 0.309017003 -0 -0.951056421
vn -1.24860094e-07 0 -1
vn -1.24860094e-07 0 -1
vn -1.24860094e-07 0 -1
vn -1.24860094e-07 0 -1
vn -0.309017122 0 -0.951056421
vn -0.309017122 0 -0.951056421
vn -0.309017122 0 -0.951056421
vn -0.309017122 0 -0.951056421
vn -0.587785184 0 -0.809017062
vn -0.587785184 0 -0.809017062
vn -0.587785184 0 -0.809017062
vn -0.587785184 0 -0.809017062
vn -0.809017003 0 -0.587785363
vn -0.809017003 0 -0.587785363
vn -0.809017003 0 -0.587785363
vn -0.809017003 0 -0.587785363
vn -0.9510566 0 -0.309016883
vn -0.9510566 0 -0.309016883
vn -0.9510566 0 -0.309016883
vn -0.9510566 0 -0.309016883
vn -1 -0 1.2486008e-07
vn -1 -0 1.2486008e-07
vn -1 -0 1.2486008e-07
vn -1 -0 1.2486008e-07
vn -0.951056421 -0 0.309017003
vn -0.951056421 -0 0.309017003
vn -0.951056421 -0 0.309017003
vn -0.951056421 -0 0.309017003
vn -0.809017003 -0 0.587785363
vn -0.809017003 -0 0.587785363
vn -0.809017003 -0 0.587785363
vn -0.809017003 -0 0.587785363
vn -0.587785125 -0 0.809017122
vn -0.587785125 -0 0.809017122
vn -0.587785125 -0 0.809017122
vn -0.587785125 -0 0.809017122
vn -0.309017003 -0 0.95105654
vn -0.309017003 -0 0.95105654
vn -0.309017003 -0 0.95105654
vn -0.309017003 -0 0.95105654
vn -2.40115572e-08 -0 1
vn -2.40115572e-08 -0 1
vn -2.40115572e-08 -0 1
vn -2.40115572e-08 -0 1
vn 0.309017122 0 0.951056421
vn 0.309017122 0 0.951056421
vn 0.309017122 0 0.951056421
vn 0.309017122 0 0.951056421
vn 0.587785363 0 0.809016824
vn 0.587785363 0 0.809016824
vn 0.587785363 0 0.809016824
vn 0.587785363 0 0.809016824
vn 0.809017181 0 0.587785065
vn 0.809017181 0 0.587785065
vn 0.809017181 0 0.587785065
vn 0.809017181 0 0.587785065
vn 0.95105654 0 0.309016883
vn 0.95105654 0 0.309016883
vn 0.95105654 0 0.309016883
vn 0.95105654 0 0.309016883
vn 1 0 3.36161818e-08
vn 1 0 3.36161818e-08
vn -0 1 -0
vn 0 1 -0
vn -0 1 -0
vn 0 1 0
vn 0 1 0
vn -0 1 -0
vn -0 1 -0
vn 0 1 0
vn 0 1 0
vn -0 1 -0
vn -0 1 -0
vn 0 1 0
vn 0 1 0
vn -0 1 -0
vn -0 1 -0
vn 0 1 0
vn 0 1 0
vn -0 1 -0
vn -0 1 0
vn -0 1 -0
vn -0 1 -0
vn -0 1 0
vn -0 1 0
vn 0 1 -0
vn 0 1 -0
vn -0 1 0
vn -0 1 0
vn 0 0.99999994 -0
vn 0 0.99999994 -0
vn -0 1 0
vn -0 1 0
vn 0 1 -0
vn 0 1 -0
vn -0 1 0
vn -0 1 0
vn 0 1 -0
vn 0 1 -0
vn -0 1 0
vn 0 1 0
vn -0 1 -0
vn -0 1 -0
vn 0 1 0
vn 0 1 0
vn -0 1 -0
vn -0 1 -0
vn 0 1 0
vn 0 1 0
vn -0 1 -0
vn -0 1 -0
vn 0 1 0
vn 0 1 0
vn -0 1 -0
vn -0 1 -0
vn 0 1 0
vn 0 1 0
vn -0 1 -0
vn -0 1 -0
vn 0 1 0
vn 0 1 0
vn -0 1 -0
vn -0 1 -0
vn 0 1 0
vn 0 1 -0
vn -0 1 0
vn -0 1 0
vn 0 1 -0
vn 0 1 -0
vn -0 1 0
vn -0 1 0
vn 0 1 -0
vn 0 1 -0
vn -0 1 0
vn -0 1 0
vn 0 1 -0
vn 0 1 -0
vn -0 0.99999994 0
vn -0 0.99999994 0
vn 0 1 -0
vn 0 1 -0
vn -0 1 -0
vn 0 -1 0
vn -0 -1 -0
vn 0 -1 -0
vn -0 -1 -0
vn -0 -1 -0
vn 0 -1 -0
vn 0 -1 -0
vn -0 -0.99999994 0
vn -0 -0.99999994 0
vn 0 -1 -0
vn 0 -1 -0
vn -0 -1 0
vn -0 -1 0
vn 0 -1 -0
vn 0 -1 -0
vn -0 -1 0
vn -0 -1 0
vn 0 -1 -0
vn 0 -1 -0
vn -0 -1 0
vn -0 -1 0
vn 0 -1 -0
vn 0 -1 -0
vn -0 -1 0
vn -0 -1 0
vn 0 -1 -0
vn 0 -1 0
vn -0 -1 -0
vn -0 -1 -0
vn 0 -1 0
vn 0 -1 0
vn -0 -1 -0
vn -0 -1 -0
vn 0 -1 0
vn 0 -1 0
vn -0 -1 -0
vn -0 -1 -0
vn 0 -1 0
vn 0 -1 0
vn -0 -1 -0
vn -0 -1 -0
vn 0 -1 0
vn 0 -1 0
vn -0 -1 -0
vn -0 -1 -0
vn 0 -1 0
vn -0 -1 0
vn 0 -1 -0
vn 0 -1 -0
vn -0 -1 0
vn -0 -1 0
vn 0 -1 -0
vn 0 -1 -0
vn -0 -1 0
vn -0 -1 0
vn 0 -0.99999994 -0
vn 0 -0.99999994 -0
vn -0 -1 0
vn -0 -1 0
vn 0 -1 -0
vn 0 -1 -0
vn -0 -1 0
vn -0 -1 0
vn -0 -1 -0
vn -0 -1 -0
vn -0 -1 0
vn -0 -1 -0
vn 0 -1 0
vn 0 -1 0
vn -0 -1 -0
vn -0 -1 -0
vn 0 -1 0
vn 0 -1 0
vn -0 -1 -0
vn -0 -1 -0
vn 0 -1 0
vn 0 -1 0
vn -0 -1 -0
vn -0 -1 -0
vn 0 -1 0
g Tube
f 1//1 2//2 22//3 21//4
f 2//5 3//6 23//7 22//8
f 3//9 4//10 24//11 23//12
f 4//13 5//14 25//15 24//16
f 5//17 6//18 26//19 25//20
f 6//21 7//22 27//23 26//24
f 7//25 8//26 28//27 27//28
f 8//29 9//30 29//31 28//32
f 9//33 10//34 30//35 29//36
f 10//37 11//38 31//39 30//40
f 11//41 12//42 32//43 31//44
f 12//45 13//46 33//47 32//48
f 13//49 14//50 34//51 33//52
f 14//53 15//54 35//55 34//56
f 15//57 16//58 36//59 35//60
f 16//61 17//62 37//63 36//64
f 17//65 18//66 38//67 37//68
f 18//69 19//70 39//71 38//72
f 19//73 20//74 40//75 39//76
f 20//77 1//78 21//79 40//80
f 41//81 44//82 43//83 42//84
f 42//85 43//86 46//87 45//88
f 45//89 46//90 48//91 47//92
f 47//93 48//94 50//95 49//96
f 49//97 50//98 52//99 51//100
f 51//101 52//102 54//103 53//104
f 53//105 54//106 56//107 55//108
f 55//109 56//110 58//111 57//112
f 57//113 58//114 60//115 59//116
f 59//117 60//118 62//119 61//120
f 61//121 62//122 64//123 63//124
f 63//125 64//126 66//127 65//128
f 65//129 66//130 68//131 67//132
f 67//133 68//134 70//135 69//136
f 69//137 70//138 72//139 71//140
f 71//141 72//142 74//143 73//144
f 73//145 74//146 76//147 75//148
f 75//149 76//150 78//151 77//152
f 77//153 78//154 80//155 79//156
f 79//157 80//158 44//159 41//160
f 1//161 41//162 42//163 2//164
f 2//165 42//166 45//167 3//168
f 3//169 45//170 47//171 4//172
f 4//173 47//174 49//175 5//176
f 5//177 49//178 51//179 6//180
f 6//181 51//182 53//183 7//184
f 7//185 53//186 55//187 8//188
f 8//189 55//190 57//191 9//192
f 9//193 57//194 59//195 10//196
f 10//197 59//198 61//199 11//200
f 11//201 61//202 63//203 12//204
f 12//205 63//206 65//207 13//208
f 13//209 65//210 67//211 14//212
f 14//213 67//214 69//215 15//216
f 15//217 69//218 71//219 16//220
f 16//221 71//222 73//223 17//224
f 17//225 73//226 75//227 18//228
f 18//229 75//230 77//231 19//232
f 19//233 77//234 79//235 20//236
f 20//237 79//238 41//239 1//240
f 22//241 43//242 44//243 21//244
f 21//245 44//246 80//247 40//248
f 40//249 80//250 78//251 39//252
f 39//253 78//254 76//255 38//256
f 38//257 76//258 74//259 37//260
f 37//261 74//262 72//263 36//264
f 36//265 72//266 70//267 35//268
f 35//269 70//270 68//271 34//272
f 34//273 68//274 66//275 33//276
f 33//277 66//278 64//279 32//280
f 32//281 64//282 62//283 31//284
f 31//285 62//286 60//287 30//288
f 30//289 60//290 58//291 29//292
f 29//293 58//294 56//295 28//296
f 28//297 56//298 54//299 27//300
f 27//301 54//302 52//303 26//304
f 26//305 52//306 50//307 25//308
f 25//309 50//310 48//311 24//312
f 24//313 48//314 46//315 23//316
f 23//317 46//318 43//319 22//320
